<?xml version="1.0" standalone="no"?>
<!DOCTYPE svg PUBLIC "-//W3C//DTD SVG 20010904//EN"
 "http://www.w3.org/TR/2001/REC-SVG-20010904/DTD/svg10.dtd">
<svg version="1.0" xmlns="http://www.w3.org/2000/svg"
 width="300.000000pt" height="300.000000pt" viewBox="0 0 300.000000 300.000000"
 preserveAspectRatio="xMidYMid meet">

<g transform="translate(0.000000,300.000000) scale(0.100000,-0.100000)"
fill="#000000" stroke="none">
<path d="M326 2748 c265 -267 374 -396 318 -374 -22 9 -497 86 -528 86 -41 0
-56 -33 -56 -128 0 -114 20 -203 99 -442 63 -188 67 -206 54 -227 -31 -47 9
-109 105 -163 47 -26 52 -49 52 -214 0 -170 -68 -532 -118 -632 -47 -92 -106
-160 -163 -186 -38 -18 -49 -28 -47 -43 4 -31 77 -41 151 -23 32 8 56 12 55 9
-2 -3 -15 -31 -30 -61 -15 -30 -34 -82 -43 -115 -15 -59 -20 -189 -9 -219 5
-14 52 -16 420 -16 l415 0 -26 43 c-14 24 -25 47 -25 50 0 4 54 7 119 7 162 0
169 14 28 56 -60 18 -151 75 -173 109 -24 37 40 146 108 181 35 18 80 18 148
-2 30 -9 67 -18 82 -21 15 -3 33 -12 40 -21 9 -11 10 -14 1 -8 -7 4 -29 9 -50
11 l-38 5 30 -22 c60 -43 135 -131 167 -195 25 -51 32 -78 32 -127 l1 -61 37
-3 36 -3 -13 48 c-30 105 -85 247 -116 294 -17 27 -52 68 -78 90 l-46 41 35
-7 c19 -4 46 -17 60 -30 44 -39 231 -177 274 -201 22 -13 53 -24 68 -24 19 0
26 -4 22 -13 -3 -8 2 -19 10 -26 10 -9 12 -19 7 -34 -5 -12 -11 -48 -15 -79
l-7 -58 126 0 c117 0 127 1 120 18 -19 44 -16 58 27 111 l43 53 58 -6 c33 -3
79 -15 103 -25 24 -11 46 -16 49 -11 7 12 -49 75 -90 100 -59 37 -55 90 7 90
41 0 172 -70 233 -124 41 -36 48 -47 37 -57 -7 -8 -29 -12 -50 -10 -32 2 -40
-2 -50 -23 -10 -22 -60 -46 -98 -46 -6 0 -29 -12 -50 -26 -21 -15 -40 -22 -42
-16 -7 22 -63 93 -77 99 -23 8 -45 -4 -39 -21 3 -9 30 -31 60 -51 30 -20 54
-40 54 -46 0 -16 26 -10 71 16 56 32 86 31 121 -2 15 -14 30 -24 34 -21 3 4
-8 16 -25 29 l-30 22 23 22 c13 12 25 26 27 32 2 5 21 8 41 5 36 -4 37 -5 44
-58 3 -30 10 -54 15 -54 12 0 11 47 -1 90 -9 30 -2 74 16 98 1 2 16 -6 33 -19
27 -20 31 -29 31 -73 0 -103 -14 -96 201 -96 l189 0 11 27 c27 71 41 160 46
298 7 180 -9 300 -68 533 -45 179 -49 248 -29 492 13 155 9 262 -16 403 -15
81 -15 89 0 106 18 20 20 44 6 71 -11 21 4 166 40 384 38 226 36 417 -6 539
-19 57 -64 107 -96 107 -12 0 -102 -48 -198 -106 -146 -88 -358 -204 -374
-204 -2 0 -7 11 -10 25 -21 81 -417 325 -528 325 -42 0 -321 -77 -418 -115
-149 -58 -138 -60 -226 34 -43 46 -84 81 -95 81 -10 0 -19 -3 -19 -7 0 -5 42
-52 93 -105 107 -113 111 -114 215 -69 95 41 148 58 310 97 126 31 147 34 180
23 64 -20 223 -104 317 -167 85 -56 160 -122 139 -122 -5 0 -76 36 -159 81
-82 45 -174 90 -204 100 -63 22 -144 24 -221 4 l-55 -14 110 1 c129 0 149 -6
304 -92 61 -33 132 -70 158 -81 l48 -21 -40 -19 c-22 -11 -70 -28 -107 -40
l-68 -21 -32 20 c-18 11 -55 27 -83 36 -45 15 -58 15 -132 2 -102 -18 -176
-56 -274 -143 -41 -36 -103 -80 -139 -97 -62 -30 -70 -31 -179 -29 -99 2 -119
0 -150 -18 -32 -18 -44 -19 -96 -10 -33 5 -77 17 -98 25 -50 22 -145 112 -163
156 -9 21 -109 129 -252 272 -202 203 -241 238 -267 238 -26 0 -7 -23 221
-252z m1677 -459 c46 -33 67 -56 65 -67 -5 -25 -34 -26 -69 -1 -27 19 -35 20
-52 10 -16 -10 -21 -10 -28 0 -4 8 -3 19 3 26 8 10 6 19 -9 36 -23 25 -20 47
5 47 10 0 48 -23 85 -51z m395 -6 c19 -17 47 -92 37 -101 -2 -2 -11 13 -20 34
-19 47 -26 51 -70 46 -42 -5 -46 -28 -14 -74 33 -45 14 -45 -32 0 -39 39 -40
42 -25 64 33 47 89 61 124 31z m144 -70 c8 -10 21 -33 28 -51 12 -32 12 -34
-24 -66 -29 -28 -36 -30 -36 -15 0 10 12 24 26 31 31 15 33 29 7 43 -10 6 -22
16 -26 23 -11 17 -27 15 -44 -5 -13 -16 -13 -16 -8 7 7 26 31 50 50 50 7 0 19
-8 27 -17z m-1523 -108 c5 -19 16 -42 25 -51 21 -21 20 -29 -6 -54 -19 -18
-24 -18 -36 -6 -16 16 -28 105 -19 131 10 25 26 17 36 -20z m1321 25 c0 -5 -9
-14 -21 -20 -11 -7 -25 -25 -31 -42 l-11 -30 -20 31 c-19 30 -19 33 -2 51 19
21 85 29 85 10z m-1643 -138 c-2 -15 -66 -41 -85 -34 -16 5 -15 45 3 89 l15
36 35 -39 c19 -21 33 -45 32 -52z m1863 6 c0 -27 -26 -74 -45 -82 -9 -3 -31
-6 -49 -6 -28 0 -35 6 -54 41 -12 22 -22 43 -22 45 0 11 43 2 56 -11 34 -34
93 2 79 47 -8 23 -8 23 14 4 11 -11 21 -28 21 -38z m58 -9 c4 -40 -5 -34 -30
22 l-18 42 22 -15 c15 -10 24 -28 26 -49z m-243 30 c6 -7 -49 -29 -71 -29 -17
0 -18 27 -1 33 17 6 64 3 72 -4z m364 -45 c15 -33 14 -50 -4 -78 -14 -21 -14
-27 10 -67 14 -26 25 -60 25 -82 0 -34 -4 -40 -36 -53 -50 -21 -64 -15 -85 34
l-18 42 26 0 c14 0 31 -8 38 -17 21 -29 31 41 10 73 -10 16 -14 36 -10 57 16
96 17 90 -17 85 l-32 -5 27 23 c31 27 50 23 66 -12z m-201 -104 c10 -17 9 -23
-10 -42 l-23 -23 -3 28 c-6 54 13 73 36 37z m-1608 -74 c0 -28 267 -167 422
-220 166 -57 263 -61 172 -7 -50 30 -130 99 -150 129 l-17 26 34 -22 c71 -47
153 -84 237 -106 81 -21 87 -25 93 -53 3 -16 9 -35 13 -41 11 -19 65 -14 155
13 115 34 233 49 301 39 53 -9 56 -11 80 -59 24 -48 25 -57 24 -235 0 -145 -4
-201 -19 -260 -22 -92 -66 -201 -97 -241 -68 -89 -78 -96 -155 -124 -104 -36
-117 -48 -109 -102 8 -64 1 -75 -35 -55 -42 24 -64 8 -61 -44 2 -28 -4 -53
-21 -83 l-25 -43 -12 89 c-15 116 -14 115 -47 107 -44 -10 -73 -33 -73 -57
l-1 -22 -19 24 -20 23 25 30 c14 17 24 33 21 35 -3 3 -22 -1 -43 -8 -21 -7
-50 -12 -65 -10 -18 1 -31 -4 -39 -16 -11 -18 -13 -18 -39 8 -25 25 -32 27
-81 23 -135 -14 -489 68 -592 137 -96 63 -148 147 -155 246 -6 90 -2 96 50 70
59 -30 208 -36 312 -13 108 25 115 44 21 57 -54 7 -142 43 -180 74 -20 16 -20
16 0 33 12 9 42 43 67 74 l47 57 3 -42 c5 -69 31 -61 73 23 39 78 31 86 -14
13 l-28 -45 -7 41 c-9 57 -27 52 -75 -16 -22 -32 -51 -71 -65 -88 l-26 -30
-20 25 c-11 14 -32 45 -46 69 -21 35 -24 45 -13 52 58 37 306 119 365 122 28
1 31 4 28 26 -9 52 -119 121 -193 121 -9 0 -24 14 -33 30 -10 17 -24 33 -33
36 -18 7 -51 -19 -71 -58 -36 -69 -45 -2 -18 128 11 53 27 94 51 130 l35 53
34 -26 c19 -14 34 -30 34 -37z m822 31 l74 -34 -1 -47 c-2 -75 -24 -79 -75
-14 -39 49 -86 128 -76 128 3 0 38 -15 78 -33z m868 -44 c8 -7 -24 -23 -47
-23 -12 0 -27 9 -32 19 -10 18 -8 19 32 14 23 -3 44 -8 47 -10z m-650 -61 c-7
-3 -19 3 -28 13 -16 15 -15 16 12 4 15 -7 23 -15 16 -17z m266 -972 c-8 -29
-22 -49 -37 -57 -45 -24 -52 -13 -16 26 19 22 41 49 47 61 18 33 21 19 6 -30z
m-166 -225 c0 -55 -21 -64 -36 -16 -11 32 -12 25 -13 -67 -1 -99 -2 -103 -26
-114 -14 -6 -25 -15 -25 -20 0 -4 -3 -8 -7 -8 -5 0 -8 51 -8 114 l0 115 30 15
30 15 -35 1 c-24 1 -29 4 -18 8 10 4 38 6 63 4 l45 -4 0 -43z m-620 -70 c21
-14 44 -34 50 -45 8 -15 -5 -10 -52 20 -74 48 -76 50 -54 50 9 0 34 -11 56
-25z m284 -55 c3 -44 11 -91 16 -105 8 -21 7 -25 -9 -25 -10 0 -32 5 -48 11
-26 9 -32 17 -40 60 -6 27 -6 52 -2 55 5 3 9 19 9 35 0 21 6 32 23 39 41 16
44 12 51 -70z m-133 32 c14 -20 29 -50 32 -67 3 -16 9 -38 13 -48 6 -16 4 -16
-27 2 -19 11 -49 36 -67 54 -27 28 -30 35 -18 40 9 4 16 18 16 32 0 36 21 31
51 -13z m281 11 c28 -17 30 -17 44 1 13 18 14 13 14 -52 0 -40 -2 -72 -5 -72
-3 0 -23 12 -45 26 -26 17 -40 34 -40 48 0 11 -3 31 -6 44 -8 27 -1 27 38 5z
m238 5 c-1 -7 -11 -32 -23 -55 -27 -52 -43 -45 -48 20 l-4 47 37 0 c24 0 38
-5 38 -12z m-250 -153 l25 -15 -25 5 c-22 5 -28 0 -48 -41 -25 -51 -25 -49 29
-79 30 -16 54 -43 46 -51 -3 -3 -25 10 -50 28 -24 18 -53 38 -63 44 -18 11
-18 13 8 68 29 59 38 64 78 41z m227 -34 c7 -20 27 -38 61 -55 63 -32 78 -52
20 -26 -54 23 -111 34 -142 26 -14 -3 -41 -23 -61 -44 l-37 -37 28 55 c15 30
27 60 26 67 -2 6 3 15 9 19 9 5 10 2 6 -9 -9 -24 3 -21 38 8 17 13 32 24 35
25 3 0 11 -13 17 -29z m-207 -41 c0 -4 -3 -15 -6 -24 -5 -13 -10 -13 -27 -4
-30 15 -30 14 -17 37 9 17 15 19 30 11 11 -6 20 -15 20 -20z"/>
<path d="M1350 1472 c0 -5 9 -17 20 -27 16 -14 20 -15 20 -4 0 16 -19 39 -32
39 -4 0 -8 -4 -8 -8z"/>
<path d="M2131 1417 c-45 -66 -56 -72 -80 -48 -12 12 -21 17 -21 13 0 -17 39
-44 54 -39 9 4 28 24 43 46 16 22 31 40 36 41 4 0 7 -17 7 -39 0 -39 20 -68
40 -56 22 13 68 125 51 125 -4 0 -18 -22 -31 -50 -13 -27 -26 -47 -30 -45 -4
3 -11 25 -14 50 -4 25 -11 45 -16 45 -5 0 -22 -19 -39 -43z"/>
<path d="M1607 1390 c30 -12 56 -55 48 -79 -10 -34 -54 -38 -170 -15 -26 5
-37 -1 -77 -40 -50 -50 -78 -57 -129 -31 -19 11 -32 26 -36 46 -8 40 -27 31
-31 -14 -2 -28 2 -42 20 -59 13 -13 37 -48 52 -78 107 -208 258 -360 361 -363
70 -2 98 52 98 188 -1 112 -15 196 -46 269 -16 39 -18 52 -9 67 32 51 -6 119
-66 118 -32 0 -34 -2 -15 -9z m43 -152 c0 -7 -4 -19 -9 -27 -8 -12 -12 -12
-25 -2 -21 17 -20 28 2 34 29 8 32 7 32 -5z m-77 -34 c27 -35 53 -47 76 -34
18 9 21 4 35 -60 31 -135 15 -310 -29 -310 -31 0 -96 41 -150 95 -54 54 -55
56 -55 113 0 58 16 125 45 197 13 30 19 35 37 29 12 -4 31 -17 41 -30z"/>
</g>
</svg>
